
<svg width="1883" height="387" viewBox="0 0 1883 387" fill="none" xmlns="http://www.w3.org/2000/svg">
<g clip-path="url(#clip0_70_48)">
<path d="M402.5 285.2C385.7 285.2 369.6 283 354.2 278.6C338.8 274 326.4 268.1 317 260.9L333.5 224.3C342.5 230.7 353.1 236 365.3 240.2C377.7 244.2 390.2 246.2 402.8 246.2C412.4 246.2 420.1 245.3 425.9 243.5C431.9 241.5 436.3 238.8 439.1 235.4C441.9 232 443.3 228.1 443.3 223.7C443.3 218.1 441.1 213.7 436.7 210.5C432.3 207.1 426.5 204.4 419.3 202.4C412.1 200.2 404.1 198.2 395.3 196.4C386.7 194.4 378 192 369.2 189.2C360.6 186.4 352.7 182.8 345.5 178.4C338.3 174 332.4 168.2 327.8 161C323.4 153.8 321.2 144.6 321.2 133.4C321.2 121.4 324.4 110.5 330.8 100.7C337.4 90.7 347.2 82.8 360.2 77C373.4 71 389.9 68 409.7 68C422.9 68 435.9 69.6 448.7 72.8C461.5 75.8 472.8 80.4 482.6 86.6L467.6 123.5C457.8 117.9 448 113.8 438.2 111.2C428.4 108.4 418.8 107 409.4 107C400 107 392.3 108.1 386.3 110.3C380.3 112.5 376 115.4 373.4 119C370.8 122.4 369.5 126.4 369.5 131C369.5 136.4 371.7 140.8 376.1 144.2C380.5 147.4 386.3 150 393.5 152C400.7 154 408.6 156 417.2 158C426 160 434.7 162.3 443.3 164.9C452.1 167.5 460.1 171 467.3 175.4C474.5 179.8 480.3 185.6 484.7 192.8C489.3 200 491.6 209.1 491.6 220.1C491.6 231.9 488.3 242.7 481.7 252.5C475.1 262.3 465.2 270.2 452 276.2C439 282.2 422.5 285.2 402.5 285.2ZM626.809 285.2C610.209 285.2 594.809 282.5 580.609 277.1C566.609 271.7 554.409 264.1 544.009 254.3C533.809 244.5 525.809 233 520.009 219.8C514.409 206.6 511.609 192.2 511.609 176.6C511.609 161 514.409 146.6 520.009 133.4C525.809 120.2 533.909 108.7 544.309 98.9C554.709 89.1 566.909 81.5 580.909 76.1C594.909 70.7 610.109 68 626.509 68C643.109 68 658.309 70.7 672.109 76.1C686.109 81.5 698.209 89.1 708.409 98.9C718.809 108.7 726.909 120.2 732.709 133.4C738.509 146.4 741.409 160.8 741.409 176.6C741.409 192.2 738.509 206.7 732.709 220.1C726.909 233.3 718.809 244.8 708.409 254.6C698.209 264.2 686.109 271.7 672.109 277.1C658.309 282.5 643.209 285.2 626.809 285.2ZM626.509 243.8C635.909 243.8 644.509 242.2 652.309 239C660.309 235.8 667.309 231.2 673.309 225.2C679.309 219.2 683.909 212.1 687.109 203.9C690.509 195.7 692.209 186.6 692.209 176.6C692.209 166.6 690.509 157.5 687.109 149.3C683.909 141.1 679.309 134 673.309 128C667.509 122 660.609 117.4 652.609 114.2C644.609 111 635.909 109.4 626.509 109.4C617.109 109.4 608.409 111 600.409 114.2C592.609 117.4 585.709 122 579.709 128C573.709 134 569.009 141.1 565.609 149.3C562.409 157.5 560.809 166.6 560.809 176.6C560.809 186.4 562.409 195.5 565.609 203.9C569.009 212.1 573.609 219.2 579.409 225.2C585.409 231.2 592.409 235.8 600.409 239C608.409 242.2 617.109 243.8 626.509 243.8ZM878.434 285.2C862.234 285.2 847.134 282.6 833.134 277.4C819.334 272 807.334 264.4 797.134 254.6C786.934 244.8 778.934 233.3 773.134 220.1C767.534 206.9 764.734 192.4 764.734 176.6C764.734 160.8 767.534 146.3 773.134 133.1C778.934 119.9 786.934 108.4 797.134 98.6C807.534 88.8 819.634 81.3 833.434 76.1C847.234 70.7 862.334 68 878.734 68C896.934 68 913.334 71.2 927.934 77.6C942.734 83.8 955.134 93 965.134 105.2L933.934 134C926.734 125.8 918.734 119.7 909.934 115.7C901.134 111.5 891.534 109.4 881.134 109.4C871.334 109.4 862.334 111 854.134 114.2C845.934 117.4 838.834 122 832.834 128C826.834 134 822.134 141.1 818.734 149.3C815.534 157.5 813.934 166.6 813.934 176.6C813.934 186.6 815.534 195.7 818.734 203.9C822.134 212.1 826.834 219.2 832.834 225.2C838.834 231.2 845.934 235.8 854.134 239C862.334 242.2 871.334 243.8 881.134 243.8C891.534 243.8 901.134 241.8 909.934 237.8C918.734 233.6 926.734 227.3 933.934 218.9L965.134 247.7C955.134 259.9 942.734 269.2 927.934 275.6C913.334 282 896.834 285.2 878.434 285.2ZM1094.06 285.2C1077.86 285.2 1062.76 282.6 1048.76 277.4C1034.96 272 1022.96 264.4 1012.76 254.6C1002.56 244.8 994.559 233.3 988.759 220.1C983.159 206.9 980.359 192.4 980.359 176.6C980.359 160.8 983.159 146.3 988.759 133.1C994.559 119.9 1002.56 108.4 1012.76 98.6C1023.16 88.8 1035.26 81.3 1049.06 76.1C1062.86 70.7 1077.96 68 1094.36 68C1112.56 68 1128.96 71.2 1143.56 77.6C1158.36 83.8 1170.76 93 1180.76 105.2L1149.56 134C1142.36 125.8 1134.36 119.7 1125.56 115.7C1116.76 111.5 1107.16 109.4 1096.76 109.4C1086.96 109.4 1077.96 111 1069.76 114.2C1061.56 117.4 1054.46 122 1048.46 128C1042.46 134 1037.76 141.1 1034.36 149.3C1031.16 157.5 1029.56 166.6 1029.56 176.6C1029.56 186.6 1031.16 195.7 1034.36 203.9C1037.76 212.1 1042.46 219.2 1048.46 225.2C1054.46 231.2 1061.56 235.8 1069.76 239C1077.96 242.2 1086.96 243.8 1096.76 243.8C1107.16 243.8 1116.76 241.8 1125.56 237.8C1134.36 233.6 1142.36 227.3 1149.56 218.9L1180.76 247.7C1170.76 259.9 1158.36 269.2 1143.56 275.6C1128.96 282 1112.46 285.2 1094.06 285.2ZM1311.18 285.2C1294.58 285.2 1279.18 282.5 1264.98 277.1C1250.98 271.7 1238.78 264.1 1228.38 254.3C1218.18 244.5 1210.18 233 1204.38 219.8C1198.78 206.6 1195.98 192.2 1195.98 176.6C1195.98 161 1198.78 146.6 1204.38 133.4C1210.18 120.2 1218.28 108.7 1228.68 98.9C1239.08 89.1 1251.28 81.5 1265.28 76.1C1279.28 70.7 1294.48 68 1310.88 68C1327.48 68 1342.68 70.7 1356.48 76.1C1370.48 81.5 1382.58 89.1 1392.78 98.9C1403.18 108.7 1411.28 120.2 1417.08 133.4C1422.88 146.4 1425.78 160.8 1425.78 176.6C1425.78 192.2 1422.88 206.7 1417.08 220.1C1411.28 233.3 1403.18 244.8 1392.78 254.6C1382.58 264.2 1370.48 271.7 1356.48 277.1C1342.68 282.5 1327.58 285.2 1311.18 285.2ZM1310.88 243.8C1320.28 243.8 1328.88 242.2 1336.68 239C1344.68 235.8 1351.68 231.2 1357.68 225.2C1363.68 219.2 1368.28 212.1 1371.48 203.9C1374.88 195.7 1376.58 186.6 1376.58 176.6C1376.58 166.6 1374.88 157.5 1371.48 149.3C1368.28 141.1 1363.68 134 1357.68 128C1351.88 122 1344.98 117.4 1336.98 114.2C1328.98 111 1320.28 109.4 1310.88 109.4C1301.48 109.4 1292.78 111 1284.78 114.2C1276.98 117.4 1270.08 122 1264.08 128C1258.08 134 1253.38 141.1 1249.98 149.3C1246.78 157.5 1245.18 166.6 1245.18 176.6C1245.18 186.4 1246.78 195.5 1249.98 203.9C1253.38 212.1 1257.98 219.2 1263.78 225.2C1269.78 231.2 1276.78 235.8 1284.78 239C1292.78 242.2 1301.48 243.8 1310.88 243.8ZM1462.31 281.6V71.6H1510.91V242H1616.21V281.6H1462.31Z" fill="white"/>
<path d="M1660.38 56.7962L1660.32 56.7728L1660.26 56.7512C1654.49 54.6281 1646.89 53.6705 1637.73 53.6705H1618V4H1664.63C1676.95 4 1689.06 4.31301 1700.97 4.9397L1701.02 4.94245L1701.08 4.94383C1712.7 5.25004 1723.21 6.93158 1732.62 9.94491C1741.2 12.8351 1747.97 17.8405 1753.03 24.9979C1757.89 31.9182 1760.6 42.4641 1760.6 57.197V131.884C1760.6 147.235 1765.17 160.867 1774.28 172.625C1783.05 183.968 1796.03 189.957 1812.52 191.029V238.191C1796 239.285 1783.02 245.45 1774.26 257.09C1765.17 268.825 1760.6 282.286 1760.6 297.331V375.329C1760.6 390.046 1757.9 400.586 1753.04 407.504C1747.58 414.961 1740.42 419.949 1731.45 422.537L1731.39 422.554L1731.34 422.572C1721.93 425.595 1711.63 427.277 1700.41 427.582C1688.48 427.896 1676.56 428.054 1664.63 428.054H1618V378.384H1637.73C1646.89 378.384 1654.49 377.426 1660.26 375.301L1660.32 375.28L1660.38 375.257C1666.54 372.773 1670.56 367.313 1672.94 360.024L1672.98 359.904L1673.01 359.782C1674.85 352.649 1675.69 341.825 1675.69 327.586V270.861C1675.69 262.521 1678.01 255.142 1682.65 248.594L1682.68 248.558L1682.71 248.52C1687.58 241.309 1693.26 235.343 1699.7 230.588L1699.79 230.518L1699.88 230.442C1706.2 225.169 1711.5 221.42 1715.88 219.081L1722.64 215.469L1715.81 211.99C1710.58 209.327 1704.87 205.423 1698.6 200.193C1692.62 195.203 1687.38 188.68 1682.9 180.534L1682.87 180.492L1682.85 180.45C1678.12 172.339 1675.69 162.66 1675.69 151.266V104.94C1675.69 90.3957 1674.85 79.41 1673.01 72.2707L1672.98 72.1484L1672.94 72.0283C1670.56 64.7382 1666.54 59.2814 1660.38 56.7962ZM224.258 62.8962L224.199 62.9178L224.141 62.9412C217.983 65.4264 213.957 70.8833 211.58 78.1734L211.541 78.2934L211.509 78.4157C209.671 85.555 208.826 96.5407 208.826 111.085V157.411C208.826 168.805 206.398 178.484 201.672 186.595L201.647 186.637L201.624 186.679C197.136 194.825 191.896 201.348 185.917 206.338C179.651 211.568 173.935 215.472 168.71 218.135L161.883 221.614L168.64 225.226C173.015 227.565 178.319 231.314 184.638 236.587L184.728 236.663L184.823 236.733C191.255 241.488 196.938 247.454 201.814 254.665L201.839 254.703L201.865 254.739C206.51 261.287 208.826 268.666 208.826 277.006V333.731C208.826 347.97 209.672 358.794 211.509 365.927L211.541 366.049L211.58 366.169C213.957 373.458 217.983 378.918 224.143 381.402L224.199 381.425L224.257 381.446C230.032 383.571 237.628 384.529 246.788 384.529H266.522V434.199H219.885C207.961 434.199 196.037 434.041 184.113 433.727C172.886 433.422 162.585 431.74 153.184 428.717L153.127 428.699L153.069 428.682C144.096 426.094 136.941 421.107 131.477 413.65C126.624 406.732 123.916 396.191 123.916 381.474V303.476C123.916 288.431 119.346 274.97 110.257 263.235C101.501 251.595 88.5206 245.43 72 244.336V197.174C88.494 196.102 101.471 190.113 110.24 178.768C119.353 167.01 123.916 153.379 123.916 138.029V63.3419C123.916 48.6063 126.631 38.0591 131.496 31.1388C136.553 23.9838 143.321 18.9799 151.903 16.0901C161.312 13.0766 171.815 11.3949 183.444 11.0887L183.496 11.0873L183.549 11.0846C195.463 10.4579 207.566 10.1449 219.885 10.1449H266.522V59.8154H246.788C237.628 59.8154 230.033 60.7731 224.258 62.8962Z" stroke="url(#paint0_linear_70_48)" stroke-width="8"/>
</g>
<defs>
<linearGradient id="paint0_linear_70_48" x1="1588.82" y1="-8.99948" x2="1588.82" y2="430.146" gradientUnits="userSpaceOnUse">
<stop offset="0.41" stop-color="#37FF00"/>
<stop offset="0.765" stop-color="#37FF00" stop-opacity="0"/>
</linearGradient>
<clipPath id="clip0_70_48">
<rect width="1883" height="387" fill="white"/>
</clipPath>
</defs>
</svg>
