
<svg width="1080" height="1080" viewBox="0 0 1080 1080" fill="none" xmlns="http://www.w3.org/2000/svg">
<g clip-path="url(#clip0_101_21)">
<g clip-path="url(#clip1_101_21)">
<mask id="mask0_101_21" style="mask-type:luminance" maskUnits="userSpaceOnUse" x="290" y="291" width="499" height="497">
<path d="M290.5 291.857H788.5V787.551H290.5V291.857Z" fill="white"/>
</mask>
<g mask="url(#mask0_101_21)">
<path d="M404.391 291.857H674.61C737.13 291.857 788.278 343.047 788.278 405.622V673.787C788.278 736.361 737.13 787.551 674.61 787.551H404.391C341.871 787.551 290.723 736.361 290.723 673.787V405.622C290.723 343.047 341.871 291.857 404.391 291.857ZM674.61 296.672H404.391C344.525 296.672 295.538 345.707 295.538 405.622V673.787C295.538 733.707 344.525 782.736 404.391 782.736H674.61C734.476 782.736 783.463 733.707 783.463 673.787V405.622C783.463 345.701 734.476 296.672 674.61 296.672Z" fill="#986DFF"/>
</g>
<path d="M396.742 468.388C398.897 449.391 414.538 434.76 433.625 433.877H596.1C599.012 434.117 601.864 434.675 604.65 435.552C607.442 436.429 610.102 437.593 612.629 439.064C615.157 440.529 617.493 442.253 619.642 444.24C621.786 446.221 623.689 448.419 625.346 450.826C628.366 455.257 630.431 460.091 631.554 465.332L679.304 441.64C679.611 441.484 679.941 441.412 680.283 441.418C680.625 441.418 680.95 441.502 681.25 441.664C681.556 441.826 681.802 442.048 682 442.331C682.192 442.613 682.312 442.925 682.36 443.267V470.231C682.36 471.132 682.108 471.961 681.604 472.705C681.106 473.456 680.433 474.002 679.605 474.344C635.643 496.151 591.711 517.982 547.798 539.836L679.304 604.95C680.163 605.245 680.871 605.755 681.424 606.475C681.976 607.196 682.288 608.012 682.36 608.919V635.841C682.354 636.261 682.246 636.646 682.03 637C681.814 637.354 681.52 637.624 681.148 637.811C680.775 637.997 680.385 638.075 679.971 638.039C679.557 638.003 679.178 637.859 678.848 637.612C663.184 629.675 647.297 622.194 631.752 614.095C630.708 617.865 629.321 621.51 627.592 625.016C626.271 627.442 624.722 629.699 622.932 631.8C621.143 633.902 619.156 635.793 616.97 637.48C614.791 639.167 612.455 640.608 609.97 641.809C607.49 643.01 604.908 643.935 602.23 644.595C598.634 645.352 594.996 645.652 591.327 645.49L439.887 645.496C436.477 645.496 433.048 645.496 429.656 645.238C412.076 642.602 398.513 628.348 396.742 610.642V584.609C396.886 583.498 397.318 582.519 398.033 581.661C398.753 580.802 399.642 580.202 400.704 579.865C427.711 566.506 454.663 553.033 481.705 539.734C454.465 526.159 427.2 512.626 399.912 499.129C398.963 498.715 398.207 498.072 397.642 497.202C397.072 496.337 396.784 495.382 396.778 494.35C396.742 485.716 396.604 477.046 396.742 468.388ZM426.84 468.568C425.213 471.847 425.969 475.635 425.831 479.166C455.575 493.869 485.097 508.657 514.781 523.265C544.117 508.711 573.465 494.158 602.825 479.604C602.825 476.962 602.945 474.326 602.825 471.666C602.735 471.078 602.603 470.508 602.417 469.943C602.224 469.385 601.99 468.845 601.708 468.328C601.426 467.806 601.096 467.32 600.723 466.857C600.351 466.401 599.943 465.975 599.499 465.59C599.048 465.2 598.574 464.858 598.064 464.558C597.559 464.257 597.025 463.999 596.473 463.795C595.92 463.591 595.35 463.435 594.767 463.327C594.191 463.225 593.603 463.171 593.014 463.171H435.9C434.964 463.141 434.045 463.243 433.138 463.471C432.232 463.705 431.379 464.059 430.575 464.54C429.77 465.02 429.044 465.602 428.407 466.287C427.771 466.971 427.242 467.734 426.822 468.568H426.84ZM425.831 600.267C425.969 603.84 425.195 607.688 426.918 611.002C427.35 611.819 427.891 612.558 428.527 613.218C429.17 613.884 429.884 614.449 430.683 614.917C431.481 615.379 432.328 615.728 433.216 615.956C434.111 616.184 435.018 616.286 435.942 616.256L593.05 616.262H593.128C596.641 616.262 599.889 614.371 601.636 611.321C603.617 607.844 602.705 603.678 602.903 599.865C573.495 585.341 544.129 570.577 514.661 556.209C485.025 570.859 455.407 585.545 425.807 600.267H425.831Z" fill="#986DFF"/>
</g>
</g>
<defs>
<clipPath id="clip0_101_21">
<rect width="1080" height="1080" fill="white"/>
</clipPath>
<clipPath id="clip1_101_21">
<rect width="1080" height="1080" fill="white"/>
</clipPath>
</defs>
</svg>
