
<svg width="1080" height="1080" viewBox="0 0 1080 1080" fill="none" xmlns="http://www.w3.org/2000/svg">
<g clip-path="url(#clip0_100_81)">
<path d="M540.445 400.479C474.752 412.373 431.944 436.814 403.99 459.752C400.495 473.256 398.445 487.282 398.445 501.814C398.445 599.132 481.537 678.018 584.012 678.018C599.295 678.018 613.792 676.032 627.572 672.661C657.17 635.145 681.388 569.839 687.562 515.782C694.035 459.229 706.904 442.095 722.922 430.929C728.608 426.97 734.576 423.945 740.89 422.506C722.881 383.997 691.374 353.729 650.674 337.893C650.774 338.339 650.956 338.704 651.062 339.15C658.798 372.22 623.531 385.436 540.445 400.479ZM766.935 456.727C766.283 455.452 765.631 454.007 764.961 452.386C752.908 422.846 723.915 441.989 716.261 459.37C701.201 493.597 703.415 508.534 697.306 543.231C691.192 577.922 670.163 644.707 639.895 678.993C596.658 727.957 549.356 749.72 483.035 743.388C416.719 737.05 365.605 680.82 346.685 640.061C330.808 605.852 328.411 567.061 347.19 516.775C365.969 466.495 422.299 425.607 473.801 405.959C525.303 386.311 566.067 384.379 594.79 376.014C623.513 367.632 640.442 353.829 639.39 342.075C638.069 327.502 624.018 319.743 616.083 316.495C592.129 308.806 566.531 304.641 539.94 304.641C405.735 304.641 296.945 410.57 296.945 541.239C296.945 671.909 405.735 777.832 539.94 777.832C674.14 777.832 782.929 671.909 782.929 541.239C782.906 511.459 777.244 482.977 766.935 456.727Z" fill="#986DFF"/>
</g>
<defs>
<clipPath id="clip0_100_81">
<rect width="1080" height="1080" fill="white"/>
</clipPath>
</defs>
</svg>
