
<svg width="1080" height="1080" viewBox="0 0 1080 1080" fill="none" xmlns="http://www.w3.org/2000/svg">
<path d="M431.848 865C491.74 865 540.348 816.392 540.348 756.5V648H431.848C371.956 648 323.348 696.608 323.348 756.5C323.348 816.392 371.956 865 431.848 865Z" fill="#986DFF"/>
<path d="M323.348 539.5C323.348 479.608 371.956 431 431.848 431H540.348V648H431.848C371.956 648 323.348 599.392 323.348 539.5Z" fill="#986DFF"/>
<path d="M323.348 322.5C323.348 262.608 371.956 214 431.848 214H540.348V431H431.848C371.956 431 323.348 382.392 323.348 322.5Z" fill="#986DFF"/>
<path d="M540.348 214H648.848C708.74 214 757.348 262.608 757.348 322.5C757.348 382.392 708.74 431 648.848 431H540.348V214Z" fill="#986DFF"/>
<path d="M757.348 539.5C757.348 599.392 708.74 648 648.848 648C588.956 648 540.348 599.392 540.348 539.5C540.348 479.608 588.956 431 648.848 431C708.74 431 757.348 479.608 757.348 539.5Z" fill="#986DFF"/>
</svg>
