
<svg width="1080" height="1080" viewBox="0 0 1080 1080" fill="none" xmlns="http://www.w3.org/2000/svg">
<g clip-path="url(#clip0_100_52)">
<path fill-rule="evenodd" clip-rule="evenodd" d="M255.004 776.038C254.769 819.362 289.708 854.638 333.006 854.871C336.224 854.898 339.471 854.716 342.662 854.326C382.845 848.382 412.279 813.416 411.294 772.818L411.294 306.047C412.254 265.396 382.741 230.432 342.534 224.539C299.523 219.504 260.56 250.288 255.525 293.301C255.161 296.468 254.979 299.635 255.006 302.827L255.006 776.037L255.004 776.038Z" fill="#9163FF"/>
<path fill-rule="evenodd" clip-rule="evenodd" d="M746.843 698.684C703.675 698.684 668.685 733.675 668.685 776.843C668.685 820.011 703.675 855.002 746.843 855.002C790.01 855.002 825 820.011 825 776.843C825 733.675 790.01 698.684 746.843 698.684ZM541.208 461.819C584.582 464.206 618.224 500.573 617.211 544V753.92C617.211 810.898 592.137 845.474 555.407 852.846C513.017 861.438 471.72 834.052 463.128 791.663C462.064 786.471 461.545 781.203 461.572 775.908V540.368C461.494 497.044 496.535 461.87 539.858 461.794C540.299 461.794 540.767 461.794 541.208 461.821V461.819Z" fill="#986DFF"/>
</g>
<defs>
<clipPath id="clip0_100_52">
<rect width="570" height="631" fill="white" transform="matrix(-1 0 0 1 825 224)"/>
</clipPath>
</defs>
</svg>
