
<svg width="1080" height="1080" viewBox="0 0 1080 1080" fill="none" xmlns="http://www.w3.org/2000/svg">
<g clip-path="url(#clip0_100_23)">
<path d="M439.389 324.533C445.479 308.539 453.851 293.814 466.283 281.881C516.011 233.391 598.215 245.577 631.959 306.508C657.331 352.714 684.225 397.904 710.357 443.602C753.996 519.512 798.143 595.422 841.274 671.585C877.555 735.309 838.23 815.788 766.175 826.705C722.028 833.306 680.673 812.996 657.838 773.391C619.527 706.62 580.963 639.85 542.652 573.334C541.89 571.811 540.876 570.541 539.861 569.272C535.801 565.972 534.025 561.148 531.488 556.832C514.489 526.874 496.983 497.171 479.984 467.467C469.074 448.172 457.657 429.131 446.747 409.836C436.852 392.573 432.285 373.785 432.793 353.983C433.554 343.828 434.823 333.673 439.389 324.533Z" fill="#9163FF"/>
<path d="M439.39 324.533C437.106 333.673 435.077 342.812 434.569 352.46C433.808 373.786 439.136 393.588 449.792 412.121C477.701 460.104 505.609 508.341 533.264 556.578C535.802 560.894 537.831 565.21 540.368 569.272C525.146 595.676 509.923 621.825 494.446 648.229C473.134 685.041 451.822 722.107 430.256 758.92C429.241 758.92 428.988 758.412 428.734 757.65C428.48 755.619 429.241 753.842 429.749 751.811C440.151 713.729 431.525 679.963 405.392 651.021C389.408 633.504 369.111 623.602 345.769 620.302C315.323 615.986 288.429 623.856 264.326 642.897C260.013 646.198 257.222 651.021 252.148 653.56C251.133 653.56 250.626 653.052 250.372 652.291C262.55 631.219 274.475 610.147 286.653 589.075C336.889 501.741 387.125 414.406 437.614 327.326C438.121 326.31 438.882 325.549 439.39 324.533Z" fill="#986DFF"/>
<path d="M251.387 653.052C256.207 648.736 260.774 644.166 265.848 640.104C327.501 591.359 420.107 626.648 433.554 703.828C436.852 722.361 435.076 740.132 429.495 757.904C429.241 759.427 428.987 760.696 428.48 762.22C426.196 766.282 424.167 770.598 421.629 774.66C399.049 811.98 365.812 830.513 322.173 827.72C272.191 824.166 232.865 786.592 226.015 736.832C222.717 712.713 227.537 690.118 239.969 669.3C242.507 664.73 245.551 660.668 248.342 656.098C249.611 655.083 249.103 653.052 251.387 653.052Z" fill="#9163FF"/>
<path d="M251.387 653.052C250.372 654.068 250.372 655.845 248.596 656.099C248.342 654.322 249.357 653.306 250.372 652.037L251.387 653.052Z" fill="#986DFF"/>
<path d="M428.48 762.22C427.465 760.443 428.48 759.173 429.495 757.904C429.749 758.158 430.256 758.665 430.51 758.919L428.48 762.22Z" fill="#986DFF"/>
</g>
<defs>
<clipPath id="clip0_100_23">
<rect width="630" height="576" fill="white" transform="translate(225 252)"/>
</clipPath>
</defs>
</svg>
