
<svg width="1064" height="1064" viewBox="0 0 1064 1064" fill="none" xmlns="http://www.w3.org/2000/svg">
<g clip-path="url(#clip0_96_358)">
<g filter="url(#filter0_f_96_358)">
<path d="M245.8 690V632.25L240.3 619.6V516.2C240.3 497.867 234.617 483.567 223.25 473.3C212.25 463.033 195.2 457.9 172.1 457.9C156.334 457.9 140.75 460.467 125.35 465.6C110.317 470.367 97.4835 476.967 86.8502 485.4L56.0502 425.45C72.1835 414.083 91.6169 405.283 114.35 399.05C137.084 392.817 160.184 389.7 183.65 389.7C228.75 389.7 263.767 400.333 288.7 421.6C313.634 442.867 326.1 476.05 326.1 521.15V690H245.8ZM155.6 694.4C132.5 694.4 112.7 690.55 96.2002 682.85C79.7002 674.783 67.0502 663.967 58.2502 650.4C49.4502 636.833 45.0502 621.617 45.0502 604.75C45.0502 587.15 49.2669 571.75 57.7002 558.55C66.5002 545.35 80.2502 535.083 98.9502 527.75C117.65 520.05 142.034 516.2 172.1 516.2H250.75V566.25H181.45C161.284 566.25 147.35 569.55 139.65 576.15C132.317 582.75 128.65 591 128.65 600.9C128.65 611.9 132.867 620.7 141.3 627.3C150.1 633.533 162.017 636.65 177.05 636.65C191.35 636.65 204.184 633.35 215.55 626.75C226.917 619.783 235.167 609.7 240.3 596.5L253.5 636.1C247.267 655.167 235.9 669.65 219.4 679.55C202.9 689.45 181.634 694.4 155.6 694.4ZM532.952 694.4C505.085 694.4 479.968 688.167 457.602 675.7C435.235 662.867 417.452 645.083 404.252 622.35C391.418 599.617 385.002 572.85 385.002 542.05C385.002 510.883 391.418 483.933 404.252 461.2C417.452 438.467 435.235 420.867 457.602 408.4C479.968 395.933 505.085 389.7 532.952 389.7C557.885 389.7 579.702 395.2 598.402 406.2C617.102 417.2 631.585 433.883 641.852 456.25C652.118 478.617 657.252 507.217 657.252 542.05C657.252 576.517 652.302 605.117 642.402 627.85C632.502 650.217 618.202 666.9 599.502 677.9C581.168 688.9 558.985 694.4 532.952 694.4ZM547.802 624C561.735 624 574.385 620.7 585.752 614.1C597.118 607.5 606.102 598.15 612.702 586.05C619.668 573.583 623.152 558.917 623.152 542.05C623.152 524.817 619.668 510.15 612.702 498.05C606.102 485.95 597.118 476.6 585.752 470C574.385 463.4 561.735 460.1 547.802 460.1C533.502 460.1 520.668 463.4 509.302 470C497.935 476.6 488.768 485.95 481.802 498.05C475.202 510.15 471.902 524.817 471.902 542.05C471.902 558.917 475.202 573.583 481.802 586.05C488.768 598.15 497.935 607.5 509.302 614.1C520.668 620.7 533.502 624 547.802 624ZM625.352 690V629.5L627.002 541.5L621.502 454.05V281.9H707.302V690H625.352ZM886.262 694.4C860.962 694.4 836.579 691.467 813.112 685.6C790.012 679.367 771.679 671.667 758.112 662.5L786.712 600.9C800.279 609.333 816.229 616.3 834.562 621.8C853.262 626.933 871.596 629.5 889.562 629.5C909.362 629.5 923.296 627.117 931.362 622.35C939.796 617.583 944.012 610.983 944.012 602.55C944.012 595.583 940.712 590.45 934.112 587.15C927.879 583.483 919.446 580.733 908.812 578.9C898.179 577.067 886.446 575.233 873.612 573.4C861.146 571.567 848.496 569.183 835.662 566.25C822.829 562.95 811.096 558.183 800.462 551.95C789.829 545.717 781.212 537.283 774.612 526.65C768.379 516.017 765.262 502.267 765.262 485.4C765.262 466.7 770.579 450.2 781.212 435.9C792.212 421.6 807.979 410.417 828.512 402.35C849.046 393.917 873.612 389.7 902.212 389.7C922.379 389.7 942.912 391.9 963.812 396.3C984.712 400.7 1002.13 407.117 1016.06 415.55L987.462 476.6C973.162 468.167 958.679 462.483 944.012 459.55C929.712 456.25 915.779 454.6 902.212 454.6C883.146 454.6 869.212 457.167 860.412 462.3C851.612 467.433 847.212 474.033 847.212 482.1C847.212 489.433 850.329 494.933 856.562 498.6C863.162 502.267 871.779 505.2 882.412 507.4C893.046 509.6 904.596 511.617 917.062 513.45C929.896 514.917 942.729 517.3 955.562 520.6C968.396 523.9 979.946 528.667 990.212 534.9C1000.85 540.767 1009.46 549.017 1016.06 559.65C1022.66 569.917 1025.96 583.483 1025.96 600.35C1025.96 618.683 1020.46 635 1009.46 649.3C998.462 663.233 982.512 674.233 961.612 682.3C941.079 690.367 915.962 694.4 886.262 694.4Z" fill="url(#paint0_linear_96_358)"/>
</g>
<path d="M245.8 690V632.25L240.3 619.6V516.2C240.3 497.867 234.617 483.567 223.25 473.3C212.25 463.033 195.2 457.9 172.1 457.9C156.334 457.9 140.75 460.467 125.35 465.6C110.317 470.367 97.4835 476.967 86.8502 485.4L56.0502 425.45C72.1835 414.083 91.6169 405.283 114.35 399.05C137.084 392.817 160.184 389.7 183.65 389.7C228.75 389.7 263.767 400.333 288.7 421.6C313.634 442.867 326.1 476.05 326.1 521.15V690H245.8ZM155.6 694.4C132.5 694.4 112.7 690.55 96.2002 682.85C79.7002 674.783 67.0502 663.967 58.2502 650.4C49.4502 636.833 45.0502 621.617 45.0502 604.75C45.0502 587.15 49.2669 571.75 57.7002 558.55C66.5002 545.35 80.2502 535.083 98.9502 527.75C117.65 520.05 142.034 516.2 172.1 516.2H250.75V566.25H181.45C161.284 566.25 147.35 569.55 139.65 576.15C132.317 582.75 128.65 591 128.65 600.9C128.65 611.9 132.867 620.7 141.3 627.3C150.1 633.533 162.017 636.65 177.05 636.65C191.35 636.65 204.184 633.35 215.55 626.75C226.917 619.783 235.167 609.7 240.3 596.5L253.5 636.1C247.267 655.167 235.9 669.65 219.4 679.55C202.9 689.45 181.634 694.4 155.6 694.4ZM532.952 694.4C505.085 694.4 479.968 688.167 457.602 675.7C435.235 662.867 417.452 645.083 404.252 622.35C391.418 599.617 385.002 572.85 385.002 542.05C385.002 510.883 391.418 483.933 404.252 461.2C417.452 438.467 435.235 420.867 457.602 408.4C479.968 395.933 505.085 389.7 532.952 389.7C557.885 389.7 579.702 395.2 598.402 406.2C617.102 417.2 631.585 433.883 641.852 456.25C652.118 478.617 657.252 507.217 657.252 542.05C657.252 576.517 652.302 605.117 642.402 627.85C632.502 650.217 618.202 666.9 599.502 677.9C581.168 688.9 558.985 694.4 532.952 694.4ZM547.802 624C561.735 624 574.385 620.7 585.752 614.1C597.118 607.5 606.102 598.15 612.702 586.05C619.668 573.583 623.152 558.917 623.152 542.05C623.152 524.817 619.668 510.15 612.702 498.05C606.102 485.95 597.118 476.6 585.752 470C574.385 463.4 561.735 460.1 547.802 460.1C533.502 460.1 520.668 463.4 509.302 470C497.935 476.6 488.768 485.95 481.802 498.05C475.202 510.15 471.902 524.817 471.902 542.05C471.902 558.917 475.202 573.583 481.802 586.05C488.768 598.15 497.935 607.5 509.302 614.1C520.668 620.7 533.502 624 547.802 624ZM625.352 690V629.5L627.002 541.5L621.502 454.05V281.9H707.302V690H625.352ZM886.262 694.4C860.962 694.4 836.579 691.467 813.112 685.6C790.012 679.367 771.679 671.667 758.112 662.5L786.712 600.9C800.279 609.333 816.229 616.3 834.562 621.8C853.262 626.933 871.596 629.5 889.562 629.5C909.362 629.5 923.296 627.117 931.362 622.35C939.796 617.583 944.012 610.983 944.012 602.55C944.012 595.583 940.712 590.45 934.112 587.15C927.879 583.483 919.446 580.733 908.812 578.9C898.179 577.067 886.446 575.233 873.612 573.4C861.146 571.567 848.496 569.183 835.662 566.25C822.829 562.95 811.096 558.183 800.462 551.95C789.829 545.717 781.212 537.283 774.612 526.65C768.379 516.017 765.262 502.267 765.262 485.4C765.262 466.7 770.579 450.2 781.212 435.9C792.212 421.6 807.979 410.417 828.512 402.35C849.046 393.917 873.612 389.7 902.212 389.7C922.379 389.7 942.912 391.9 963.812 396.3C984.712 400.7 1002.13 407.117 1016.06 415.55L987.462 476.6C973.162 468.167 958.679 462.483 944.012 459.55C929.712 456.25 915.779 454.6 902.212 454.6C883.146 454.6 869.212 457.167 860.412 462.3C851.612 467.433 847.212 474.033 847.212 482.1C847.212 489.433 850.329 494.933 856.562 498.6C863.162 502.267 871.779 505.2 882.412 507.4C893.046 509.6 904.596 511.617 917.062 513.45C929.896 514.917 942.729 517.3 955.562 520.6C968.396 523.9 979.946 528.667 990.212 534.9C1000.85 540.767 1009.46 549.017 1016.06 559.65C1022.66 569.917 1025.96 583.483 1025.96 600.35C1025.96 618.683 1020.46 635 1009.46 649.3C998.462 663.233 982.512 674.233 961.612 682.3C941.079 690.367 915.962 694.4 886.262 694.4Z" fill="url(#paint1_linear_96_358)"/>
</g>
<defs>
<filter id="filter0_f_96_358" x="6.0498" y="242.9" width="1058.91" height="490.5" filterUnits="userSpaceOnUse" color-interpolation-filters="sRGB">
<feFlood flood-opacity="0" result="BackgroundImageFix"/>
<feBlend mode="normal" in="SourceGraphic" in2="BackgroundImageFix" result="shape"/>
<feGaussianBlur stdDeviation="19.5" result="effect1_foregroundBlur_96_358"/>
</filter>
<linearGradient id="paint0_linear_96_358" x1="137.246" y1="160" x2="990.487" y2="1206.38" gradientUnits="userSpaceOnUse">
<stop stop-color="#4C00FF"/>
<stop offset="0.998004" stop-color="#4C00FF" stop-opacity="0"/>
</linearGradient>
<linearGradient id="paint1_linear_96_358" x1="137.246" y1="160" x2="595.078" y2="1022.33" gradientUnits="userSpaceOnUse">
<stop stop-color="white"/>
<stop offset="0.998004" stop-color="white" stop-opacity="0"/>
</linearGradient>
<clipPath id="clip0_96_358">
<rect width="1064" height="1064" fill="white"/>
</clipPath>
</defs>
</svg>
