
<!-- Já lido -->

<svg width="1064" height="1064" viewBox="0 0 1064 1064" fill="none" xmlns="http://www.w3.org/2000/svg">
<path d="M640.754 571.669C634.037 599.453 602.299 619.088 538.823 658.359C477.456 696.317 446.778 715.301 422.05 707.671C411.827 704.514 402.513 698.525 395.002 690.27C376.833 670.311 376.833 631.595 376.833 554.167C376.833 476.738 376.833 438.021 395.002 418.061C402.513 409.809 411.827 403.818 422.05 400.664C446.778 393.034 477.456 412.015 538.823 449.974C602.299 489.245 634.037 508.88 640.754 536.664C643.525 548.133 643.525 560.2 640.754 571.669Z" stroke="url(#paint0_linear_95_100)" stroke-width="40.5" stroke-linejoin="round"/>
<path d="M930.898 487.667C931 508.508 931 530.639 931 554.167C931 752.705 931 851.976 869.324 913.657C807.643 975.333 708.372 975.333 509.834 975.333C311.294 975.333 212.024 975.333 150.345 913.657C88.667 851.976 88.667 752.705 88.667 554.167C88.667 355.627 88.667 256.357 150.345 194.678C212.024 133 311.294 133 509.834 133C533.361 133 555.493 133 576.334 133.102" stroke="url(#paint1_linear_95_100)" stroke-width="31.5" stroke-linecap="round"/>
<g filter="url(#filter0_f_95_100)">
<path d="M820.167 88.6665L831.6 119.568C846.594 160.088 854.091 180.349 868.871 195.128C883.652 209.908 903.912 217.405 944.433 232.399L975.333 243.833L944.433 255.268C903.912 270.262 883.652 277.759 868.871 292.538C854.091 307.318 846.594 327.578 831.6 368.098L820.167 399L808.733 368.098C793.74 327.578 786.243 307.318 771.462 292.538C756.681 277.759 736.421 270.262 695.9 255.268L665 243.833L695.9 232.399C736.421 217.405 756.681 209.908 771.462 195.128C786.243 180.349 793.74 160.088 808.733 119.568L820.167 88.6665Z" stroke="white" stroke-width="40.5" stroke-linejoin="round"/>
</g>
<path d="M820.167 88.6665L831.6 119.568C846.594 160.088 854.091 180.349 868.871 195.128C883.652 209.908 903.912 217.405 944.433 232.399L975.333 243.833L944.433 255.268C903.912 270.262 883.652 277.759 868.871 292.538C854.091 307.318 846.594 327.578 831.6 368.098L820.167 399L808.733 368.098C793.74 327.578 786.243 307.318 771.462 292.538C756.681 277.759 736.421 270.262 695.9 255.268L665 243.833L695.9 232.399C736.421 217.405 756.681 209.908 771.462 195.128C786.243 180.349 793.74 160.088 808.733 119.568L820.167 88.6665Z" stroke="white" stroke-width="40.5" stroke-linejoin="round"/>
<defs>
<filter id="filter0_f_95_100" x="616.75" y="40.4165" width="406.833" height="406.833" filterUnits="userSpaceOnUse" color-interpolation-filters="sRGB">
<feFlood flood-opacity="0" result="BackgroundImageFix"/>
<feBlend mode="normal" in="SourceGraphic" in2="BackgroundImageFix" result="shape"/>
<feGaussianBlur stdDeviation="14" result="effect1_foregroundBlur_95_100"/>
</filter>
<linearGradient id="paint0_linear_95_100" x1="412.5" y1="442.5" x2="551" y2="735.5" gradientUnits="userSpaceOnUse">
<stop stop-color="#4C00FF"/>
<stop offset="1" stop-color="white" stop-opacity="0"/>
</linearGradient>
<linearGradient id="paint1_linear_95_100" x1="191.5" y1="160" x2="854" y2="1269.5" gradientUnits="userSpaceOnUse">
<stop offset="0.0168798" stop-color="white"/>
<stop offset="0.901192" stop-color="white" stop-opacity="0"/>
</linearGradient>
</defs>
</svg>
