
<svg width="1080" height="1080" viewBox="0 0 1080 1080" fill="none" xmlns="http://www.w3.org/2000/svg">
<g clip-path="url(#clip0_100_16)">
<path d="M217.786 627.188C217.786 658.634 224.675 682.675 233.68 697.254C238.478 705.554 245.388 712.436 253.707 717.201C262.026 721.966 271.459 724.443 281.045 724.382C304.2 724.382 325.381 718.665 366.201 662.178C398.903 616.926 437.436 553.55 463.391 513.529L507.298 446.065C537.799 399.212 573.045 347.128 613.579 311.709C646.595 283.008 682.241 267 718.115 267C778.345 267 835.715 301.904 879.622 367.367C927.674 439.061 951.086 529.366 951.086 622.557C951.086 677.958 940.166 718.665 921.586 750.825C903.663 781.927 868.56 813 809.703 813V724.382C860.099 724.382 872.59 678.072 872.59 625.073C872.59 549.548 854.982 465.733 816.192 405.844C788.664 363.365 752.989 337.408 713.742 337.408C671.292 337.408 637.133 369.425 598.743 426.512C578.333 456.842 557.38 493.804 533.854 535.512L507.956 581.25C455.931 673.498 442.753 694.509 416.74 729.185C371.232 790.131 332.299 813 281.045 813C220.244 813 181.797 786.672 158.128 746.994C138.548 714.663 129 672.241 129 623.901L217.786 627.188Z" fill="#986DFF"/>
<path d="M199.006 373.627C239.711 310.88 298.454 267 365.83 267C404.849 267 443.639 278.435 484.145 311.623C528.452 347.785 575.618 407.331 634.589 505.468L655.714 540.686C706.71 625.645 735.753 669.325 752.704 689.964C774.543 716.435 789.865 724.268 809.703 724.268C860.099 724.268 872.591 677.958 872.591 624.959L950.915 622.5C950.915 677.901 939.995 718.608 921.414 750.767C903.663 781.927 868.56 813 809.703 813C773.114 813 740.698 805.053 704.852 771.235C677.296 745.279 645.08 699.169 620.297 657.719L546.575 534.569C509.586 472.765 475.655 426.684 456.017 405.93C434.863 383.375 407.736 356.275 364.401 356.275C329.326 356.275 299.54 380.888 274.614 418.536L199.006 373.627Z" fill="url(#paint0_linear_100_16)"/>
<path d="M364.4 356.275C329.326 356.275 299.54 380.888 274.614 418.536C239.368 471.736 217.786 550.977 217.786 627.188C217.786 658.634 224.675 682.675 233.68 697.254L157.986 746.994C138.548 714.663 129 672.241 129 623.901C129 535.998 153.126 444.379 199.005 373.627C239.711 310.88 298.454 267 365.83 267L364.4 356.275Z" fill="url(#paint1_linear_100_16)"/>
</g>
<defs>
<linearGradient id="paint0_linear_100_16" x1="307.201" y1="525.85" x2="873.191" y2="554.434" gradientUnits="userSpaceOnUse">
<stop offset="1" stop-color="#986DFF"/>
</linearGradient>
<linearGradient id="paint1_linear_100_16" x1="247.4" y1="664.351" x2="247.4" y2="455.67" gradientUnits="userSpaceOnUse">
<stop stop-color="#986DFF"/>
</linearGradient>
<clipPath id="clip0_100_16">
<rect width="822" height="546" fill="white" transform="translate(129 267)"/>
</clipPath>
</defs>
</svg>
