
<svg width="1080" height="1080" viewBox="0 0 1080 1080" fill="none" xmlns="http://www.w3.org/2000/svg">
<g clip-path="url(#clip0_100_77)">
<path d="M316.462 316.463C316.462 465.461 316.462 614.487 316.462 763.538C465.46 763.538 614.487 763.538 763.537 763.538C763.537 614.511 763.537 465.49 763.537 316.463H316.462ZM299.6 299.6H780.4V780.4H299.6V299.6Z" fill="#986DFF"/>
<path d="M409.98 406.381C420.623 406.381 431.266 406.381 441.909 406.381C444.413 406.381 446.952 406.381 449.456 406.381C473.535 471.878 497.649 537.363 521.804 602.836C525.717 613.52 529.398 624.284 532.685 635.199C533.624 638.016 534.325 640.949 535.345 643.767C541.096 622.951 548.996 602.801 556.747 582.652L624.359 406.421C636.799 406.421 649.244 406.421 661.649 406.421L553.929 673.579C541.484 673.579 529.044 673.579 516.599 673.579C500.768 634.092 484.984 594.559 469.257 554.985C449.694 505.945 430.13 456.922 410.566 407.905C410.369 407.395 410.172 406.85 410.015 406.34L409.98 406.381Z" fill="#986DFF"/>
</g>
<defs>
<clipPath id="clip0_100_77">
<rect width="1080" height="1080" fill="white"/>
</clipPath>
</defs>
</svg>
