
<svg width="1080" height="1080" viewBox="0 0 1080 1080" fill="none" xmlns="http://www.w3.org/2000/svg">
<path d="M793.601 325.242L680.984 271.023C674.624 267.957 667.468 266.945 660.507 268.128C653.546 269.311 647.126 272.63 642.136 277.625L273.484 613.719C269.011 617.777 266.334 623.446 266.041 629.479C265.747 635.512 267.863 641.414 271.921 645.887C272.41 646.414 272.898 646.922 273.425 647.391L303.523 674.734C307.456 678.314 312.518 680.403 317.831 680.638C323.143 680.874 328.371 679.241 332.605 676.023L776.648 339.305C780.002 336.76 784 335.201 788.191 334.805C792.383 334.409 796.602 335.19 800.373 337.062C804.145 338.933 807.319 341.821 809.539 345.398C811.758 348.976 812.935 353.102 812.937 357.312V356.004C812.937 349.576 811.122 343.279 807.701 337.837C804.28 332.395 799.393 328.029 793.601 325.242Z" fill="#986DFF"/>
<path d="M793.601 753.758L680.984 807.996C674.622 811.054 667.468 812.061 660.509 810.879C653.551 809.696 647.131 806.382 642.136 801.395L273.484 465.281C269.011 461.223 266.334 455.554 266.041 449.521C265.747 443.488 267.863 437.586 271.921 433.113C272.41 432.586 272.898 432.078 273.425 431.61L303.523 404.266C307.46 400.671 312.534 398.573 317.859 398.338C323.185 398.102 328.425 399.744 332.663 402.977L776.648 739.696C780.002 742.241 784 743.799 788.191 744.195C792.383 744.591 796.602 743.81 800.373 741.938C804.145 740.067 807.319 737.18 809.539 733.602C811.758 730.024 812.935 725.898 812.937 721.688V723.094C812.916 729.505 811.091 735.78 807.672 741.202C804.253 746.625 799.377 750.976 793.601 753.758Z" fill="#986DFF"/>
<path d="M680.984 807.996C674.623 811.054 667.468 812.061 660.51 810.879C653.551 809.696 647.131 806.382 642.137 801.395C644.941 804.163 648.501 806.042 652.369 806.796C656.237 807.55 660.241 807.145 663.88 805.633C667.52 804.121 670.632 801.569 672.826 798.296C675.021 795.023 676.201 791.175 676.219 787.234V291.766C676.222 287.807 675.05 283.935 672.852 280.643C670.653 277.35 667.526 274.784 663.868 273.27C660.21 271.756 656.185 271.361 652.302 272.136C648.42 272.912 644.855 274.822 642.059 277.625C647.049 272.632 653.468 269.312 660.428 268.126C667.387 266.94 674.543 267.946 680.906 271.004L793.504 325.145C799.314 327.918 804.222 332.278 807.66 337.721C811.099 343.164 812.928 349.468 812.937 355.906V723.094C812.939 729.527 811.123 735.83 807.699 741.276C804.274 746.722 799.381 751.089 793.582 753.875L680.984 807.996Z" fill="#986DFF"/>
</svg>
