
<svg width="1080" height="1080" viewBox="0 0 1080 1080" fill="none" xmlns="http://www.w3.org/2000/svg">
<g clip-path="url(#clip0_100_66)">
<path fill-rule="evenodd" clip-rule="evenodd" d="M122 374.38C122 374.38 154.927 370.199 176.878 389.813C190.36 401.939 194.347 421.23 194.347 421.23L239.18 597.453L276.455 453.217C280.082 437.879 286.614 419.006 296.982 406.101C310.179 389.775 336.991 388.749 339.839 388.749C342.688 388.749 369.5 389.775 382.697 406.101C393.046 418.93 399.597 437.879 403.224 453.217L440.499 597.453L485.312 421.23C485.312 421.23 489.262 401.92 502.801 389.813C524.752 370.199 557.66 374.38 557.66 374.38L471.83 703.715C471.83 703.715 443.537 705.787 429.371 698.469C410.762 688.852 401.914 681.364 390.634 636.605L389.476 631.948C385.374 615.451 379.07 589.641 372.709 563.527L370.81 555.678L368.911 547.847C359.74 510.158 351.29 475.454 349.922 471.044C348.555 466.635 347.15 457.056 339.858 457.056C332.567 457.056 331.085 466.92 329.775 471.044C328.237 475.891 318.116 517.647 307.919 559.593L306.02 567.461C300.817 589.001 295.557 610.541 290.241 632.082L289.101 636.605C277.708 681.402 268.916 688.852 250.307 698.469C236.142 705.787 207.829 703.715 207.829 703.715L122 374.38ZM640.071 432.918V444.645V640.615C639.9 680.832 635.684 689.746 617.284 699.02C603.005 706.205 581.206 703.487 581.206 703.487V483.987C581.206 472.964 585.003 465.742 598.599 459.28C606.765 455.478 614.379 452.437 622.297 448.047C629.284 444.407 635.359 439.236 640.071 432.918ZM663.636 375.482C663.636 375.482 709.209 367.538 731.901 388.521C746.351 401.958 762.53 426.114 762.53 426.114L802.406 484.634C804.305 487.674 806.849 491.001 810.894 491.001C814.939 491.001 817.464 487.674 819.382 484.634L859.258 426.114C859.258 426.114 875.437 401.958 889.906 388.521C912.503 367.614 958.152 375.482 958.152 375.482L849.916 539.561L957.791 703.145H957.411C952.93 703.677 909.939 708.124 888.463 688.225C873.994 674.807 859.182 652.969 859.182 652.969L819.306 594.45C817.407 591.39 814.844 588.102 810.818 588.102C806.792 588.102 804.267 591.39 802.33 594.45L762.454 652.969C762.454 652.969 748.44 674.807 733.97 688.225C711.355 709.246 663.826 703.088 663.826 703.088L771.796 539.58L663.636 375.482ZM639.615 374H640.09C640.09 396.503 637.906 409.845 623.759 420.241C617.152 425.087 609.922 429.018 602.264 431.93C594.5 434.823 587.355 439.164 581.206 444.721C581.206 403.744 587.453 388.92 604.182 380.101C614.36 374.798 630.899 374 637.374 374H639.615Z" fill="#986DFF"/>
</g>
<defs>
<clipPath id="clip0_100_66">
<rect width="836" height="330" fill="white" transform="translate(122 374)"/>
</clipPath>
</defs>
</svg>
